<svg viewBox="2.78 58 656.48 201.99" fill="none" style="color:#1a1412" xmlns="http://www.w3.org/2000/svg">
<mask id="mask0_9_1545" style="mask-type:luminance" maskUnits="userSpaceOnUse" x="1" y="55" width="657" height="202">
<path d="M657.5 55H1V257H657.5V55Z" fill="white"/>
</mask>
<g mask="url(#mask0_9_1545)">
<path d="M469.019 209.869C446.877 156.926 411.218 70.3269 409.76 63.3751L408.909 58.6758L382.399 59.1807L382.222 64.5091C382.138 66.9792 380.365 71.5076 378.937 75.1505L378.177 77.1079C377.84 78.0012 344.093 167.086 330.362 202.793C323.746 219.99 315.78 238.996 306.8 249.568L305.457 251.145V259.891H341.713C341.713 259.891 341.499 256.761 341.598 254.454C341.905 247.595 342.566 238.795 349.956 218.157C369.758 162.837 387.188 117.77 396.229 95.9595L440.66 206.234C453.056 237.692 454.222 244.395 454.222 254.268V259.883H492.237V250.873L490.587 249.218C482.674 241.288 476.241 227.765 468.997 209.838" fill="currentColor"/>
<path d="M263.504 64.9747C264.287 72.447 264.64 75.8647 258.063 97.1086L250.057 121.188L218.559 222.141C209.141 192.749 189.708 132.093 180.299 102.569C179.256 99.3068 178.319 96.4173 177.467 93.823C173.223 80.8047 171.472 75.4219 170.49 63.9106L170.053 58.7686H130.342L130.104 66.7069C129.95 73.2859 129.813 78.9717 124.754 97.9863C122.199 107.602 113.665 136.536 113.557 136.901L89.6111 222.234L46.2774 100.495C39.0859 80.5329 37.2823 74.2025 37.2823 64.3844V58.7686H2.77527V67.0098L3.9342 68.9362C10.2201 79.3756 17.3425 91.1976 26.5449 114.593C43.0462 156.584 75.9952 255.098 76.3329 256.085L77.63 259.976L105.843 259.495L105.659 254.632C105.759 251.844 106.174 248.752 107.87 241.024C108.146 239.983 135.968 136.932 145.899 105.435C147.488 100.394 148.908 96.4329 150.198 93.2094C152.209 97.8077 154.373 103.121 156.238 108.472C158.548 115.121 161.119 122.5 163.844 130.299C179.715 175.762 203.693 244.465 204.437 254.694L204.821 259.991L232.282 259.503L233.165 255.075C234.876 246.446 239.097 232.006 241.93 224.106C242.183 223.228 267.541 136.132 278.264 107.307C283.474 93.3026 290.942 77.6978 296.86 68.4856L297.75 67.0875V58.7686H262.852L263.504 64.9747Z" fill="currentColor"/>
<path d="M651.701 58.0005L647.364 58.2568C638.361 58.7772 629.474 59.0336 620.21 59.0336H533.121C523.857 59.0336 514.969 58.7772 505.967 58.2568L501.63 58.0005L493.603 82.1262L499.903 86.3672L502.306 85.738C520.719 80.8989 534.703 77.0928 563.982 76.8443V217.567C563.982 235.269 562.064 244.636 560.191 251.471L559.615 253.554L562.617 259.651H590.73L593.723 253.561L593.163 251.487C591.382 244.939 589.333 235.168 589.333 217.567V76.8443C618.56 77.054 632.068 79.0813 650.473 85.3263L653.696 86.3749L659.26 80.7747L651.701 58.0005Z" fill="currentColor"/>
</g>
</svg>
